<?xml version="1.0" encoding="UTF-8"?>
<svg width="200" height="60" viewBox="0 0 200 60" fill="none" xmlns="http://www.w3.org/2000/svg">
  <path d="M20 10C14.4772 10 10 14.4772 10 20V40C10 45.5228 14.4772 50 20 50H40C45.5228 50 50 45.5228 50 40V20C50 14.4772 45.5228 10 40 10H20Z" fill="#6C63FF"/>
  <path d="M30 15L40 25H35V35H25V25H20L30 15Z" fill="white"/>
  <path d="M30 45L20 35H25V25H35V35H40L30 45Z" fill="white"/>
  <path d="M65 20H70.5C73.5 20 75 21.5 75 24.5C75 27.5 73.5 29 70.5 29H68V35H65V20ZM70 26.5C71 26.5 71.5 26 71.5 24.5C71.5 23 71 22.5 70 22.5H68V26.5H70Z" fill="#333333"/>
  <path d="M77 20H85C87.5 20 89 21.5 89 24C89 25.5 88.5 26.5 87.5 27C89 27.5 89.5 28.5 89.5 30C89.5 33 88 35 85 35H77V20ZM84.5 26C85.5 26 86 25.5 86 24.5C86 23.5 85.5 23 84.5 23H80V26H84.5ZM84.5 32C85.5 32 86 31.5 86 30.5C86 29.5 85.5 29 84.5 29H80V32H84.5Z" fill="#333333"/>
  <path d="M91 20H99.5C102 20 103.5 21.5 103.5 24C103.5 26.5 102 28 99.5 28H94V35H91V20ZM99 25.5C100 25.5 100.5 25 100.5 24C100.5 23 100 22.5 99 22.5H94V25.5H99Z" fill="#333333"/>
  <path d="M105 20H108V32.5H115V35H105V20Z" fill="#333333"/>
  <path d="M116 20H119V32.5H126V35H116V20Z" fill="#333333"/>
  <path d="M127 27.5C127 23 129.5 20 133.5 20C137.5 20 140 23 140 27.5C140 32 137.5 35 133.5 35C129.5 35 127 32 127 27.5ZM137 27.5C137 24.5 135.5 23 133.5 23C131.5 23 130 24.5 130 27.5C130 30.5 131.5 32 133.5 32C135.5 32 137 30.5 137 27.5Z" fill="#333333"/>
  <path d="M142 20H145L147.5 29L150.5 20H153L156 29L158.5 20H161.5L157.5 35H155L152 26L149 35H146.5L142 20Z" fill="#333333"/>
  <path d="M163 20H166V35H163V20Z" fill="#333333"/>
  <path d="M168 20H171L177 29.5V20H180V35H177L171 25.5V35H168V20Z" fill="#333333"/>
  <path d="M182 27.5C182 23 184.5 20 188.5 20C192.5 20 195 23 195 27.5C195 32 192.5 35 188.5 35C184.5 35 182 32 182 27.5ZM192 27.5C192 24.5 190.5 23 188.5 23C186.5 23 185 24.5 185 27.5C185 30.5 186.5 32 188.5 32C190.5 32 192 30.5 192 27.5Z" fill="#333333"/>
</svg>
