<?xml version="1.0" encoding="UTF-8"?>
<svg width="400" height="300" viewBox="0 0 400 300" fill="none" xmlns="http://www.w3.org/2000/svg">
  <!-- Background Elements -->
  <rect x="50" y="50" width="300" height="200" rx="20" fill="#1A1A2E"/>
  
  <!-- Timeline -->
  <line x1="100" y1="150" x2="300" y2="150" stroke="#6C63FF" stroke-width="4" stroke-linecap="round"/>
  
  <!-- Phase Points -->
  <circle cx="100" cy="150" r="15" fill="#6C63FF"/>
  <text x="100" y="155" font-family="Arial" font-size="14" font-weight="bold" fill="white" text-anchor="middle">1</text>
  
  <circle cx="166" cy="150" r="15" fill="#FF6584"/>
  <text x="166" y="155" font-family="Arial" font-size="14" font-weight="bold" fill="white" text-anchor="middle">2</text>
  
  <circle cx="233" cy="150" r="15" fill="#63FFDA"/>
  <text x="233" y="155" font-family="Arial" font-size="14" font-weight="bold" fill="white" text-anchor="middle">3</text>
  
  <circle cx="300" cy="150" r="15" fill="#FFC107"/>
  <text x="300" y="155" font-family="Arial" font-size="14" font-weight="bold" fill="white" text-anchor="middle">4</text>
  
  <!-- Phase Labels -->
  <text x="100" y="180" font-family="Arial" font-size="12" fill="white" text-anchor="middle">MVP</text>
  <text x="100" y="195" font-family="Arial" font-size="10" fill="#CCCCCC" text-anchor="middle">Q2 2023</text>
  
  <text x="166" y="180" font-family="Arial" font-size="12" fill="white" text-anchor="middle">Enhanced</text>
  <text x="166" y="195" font-family="Arial" font-size="10" fill="#CCCCCC" text-anchor="middle">Q4 2023</text>
  
  <text x="233" y="180" font-family="Arial" font-size="12" fill="white" text-anchor="middle">Full Marketplace</text>
  <text x="233" y="195" font-family="Arial" font-size="10" fill="#CCCCCC" text-anchor="middle">Q2 2024</text>
  
  <text x="300" y="180" font-family="Arial" font-size="12" fill="white" text-anchor="middle">Expansion</text>
  <text x="300" y="195" font-family="Arial" font-size="10" fill="#CCCCCC" text-anchor="middle">Q4 2024</text>
  
  <!-- Phase 1 Features -->
  <rect x="70" y="80" width="60" height="50" rx="5" fill="#2A2A3E"/>
  <text x="100" y="100" font-family="Arial" font-size="10" fill="#6C63FF" text-anchor="middle">Web App</text>
  <text x="100" y="115" font-family="Arial" font-size="8" fill="#CCCCCC" text-anchor="middle">Core Features</text>
  
  <!-- Phase 2 Features -->
  <rect x="136" y="80" width="60" height="50" rx="5" fill="#2A2A3E"/>
  <text x="166" y="100" font-family="Arial" font-size="10" fill="#FF6584" text-anchor="middle">Chat</text>
  <text x="166" y="115" font-family="Arial" font-size="8" fill="#CCCCCC" text-anchor="middle">Notifications</text>
  
  <!-- Phase 3 Features -->
  <rect x="203" y="80" width="60" height="50" rx="5" fill="#2A2A3E"/>
  <text x="233" y="100" font-family="Arial" font-size="10" fill="#63FFDA" text-anchor="middle">Payments</text>
  <text x="233" y="115" font-family="Arial" font-size="8" fill="#CCCCCC" text-anchor="middle">Buyer Protection</text>
  
  <!-- Phase 4 Features -->
  <rect x="270" y="80" width="60" height="50" rx="5" fill="#2A2A3E"/>
  <text x="300" y="100" font-family="Arial" font-size="10" fill="#FFC107" text-anchor="middle">Mobile App</text>
  <text x="300" y="115" font-family="Arial" font-size="8" fill="#CCCCCC" text-anchor="middle">AI Matching</text>
  
  <!-- Current Status -->
  <rect x="70" y="210" width="60" height="25" rx="12" fill="#6C63FF"/>
  <text x="100" y="227" font-family="Arial" font-size="10" fill="white" text-anchor="middle">COMPLETED</text>
  
  <rect x="136" y="210" width="60" height="25" rx="12" fill="#FF6584" fill-opacity="0.5"/>
  <text x="166" y="227" font-family="Arial" font-size="10" fill="white" text-anchor="middle">IN PROGRESS</text>
  
  <!-- Title -->
  <text x="200" y="40" font-family="Arial" font-size="20" font-weight="bold" fill="white" text-anchor="middle">Phased Rollout</text>
  
  <!-- Decorative Elements -->
  <circle cx="40" cy="40" r="10" fill="#6C63FF" fill-opacity="0.5"/>
  <circle cx="360" cy="40" r="10" fill="#FF6584" fill-opacity="0.5"/>
  <circle cx="40" cy="260" r="10" fill="#63FFDA" fill-opacity="0.5"/>
  <circle cx="360" cy="260" r="10" fill="#FFC107" fill-opacity="0.5"/>
</svg>
